<?xml version="1.0" encoding="utf-8"?>
<svg version="1.1" xmlns="http://www.w3.org/2000/svg" xmlns:xlink="http://www.w3.org/1999/xlink" viewBox="0 0 1022.5 452.3" xml:space="preserve">
<path fill="#ffffff" d="M989.1,231.7c4.6-5.8,8.5-12.2,11.7-19.4c6.8-15.2,10.2-30.4,10.2-45.1c0-25.8-13.7-48.8-37.7-63.2l-0.1,0
	l-0.1,0l-0.4-0.2l-0.1-0.1l-0.1-0.1c-25.8-15-56.9-22.6-92.2-22.6c-17.5,0-34.2,2.3-49.6,6.9c-13.1-4.6-28.2-6.9-45.7-6.9
	c-18.5,0-36.1,4.1-51.8,12.1c-10-4.4-21-6.7-32.6-6.7H663c-22.4,0-42.3,8.5-56.2,24c-3.4,3.8-6.4,7.9-8.9,12.2
	c-0.5,0.9-1.5,1.5-2.5,1.5c-1,0-1.9-0.5-2.5-1.5c-6.6-10.9-16-19.9-27-26.3c-11.4-6.5-24.4-10-37.6-10h-21.8
	c-15.6,0-30.2,4.5-42.4,12.8c-18.3-8.8-38.6-14.4-60.7-16.8c0.5-3.6,0.7-7.2,0.7-10.9c0-15.6-4.9-30.6-14-43.2
	C377,10.3,356.5,0,333.8,0h-33.1c-25.3,0-41.8,10.6-51.3,19.4c-8.8,8.2-15.5,18.4-20.6,31c-7.3,18-15.2,35.8-23.5,53.2l-34.9-64
	l-0.4-0.8l-0.5-0.7l-0.2-0.5l-0.3-0.5l-0.3-0.5l-0.3-0.5l-0.5-0.9c-6.6-11.1-16-20.1-27.3-26.2C129.8,3.1,117.2,0,104.1,0H69.8
	c-20.4,0-39,8.5-52.4,23.9C6,37,0,53.1,0,70.2c0,13.2,3.5,26.1,10.2,37.4l107.8,185.6v80c0,18,6.1,34.7,17.5,48.2
	c13.8,16.4,33,25.4,54.2,25.4h29.4c20.5,0,39.4-8.5,53.2-24c0.6-0.6,1.1-1.2,1.6-1.9c10,7,20.7,12.9,32.1,17.6
	c21.9,9,46.2,13.6,72.4,13.6c24.5,0,47.5-4.2,68.5-12.6c12.2-4.9,23.8-11.1,34.7-18.8c6.9,5.9,14.4,11,22.6,15.3
	c20.1,10.6,43.4,16,69.4,16c26.7,0,50.8-5,71.8-14.8c11.4,6.2,24.6,9.5,38.5,9.5h35.3c20,0,38-7.3,51.5-20.8
	c25.6,17.6,58.4,26.1,99.9,26.1c45.7,0,82.9-13.1,110.6-38.9l0,0l0,0l0.1-0.1l0,0l0,0c13.4-12.6,23.7-27.4,30.6-44
	c6.9-16.4,10.4-34.2,10.4-53C1022.5,284.6,1011,255.5,989.1,231.7z M960.9,391.3l-0.1,0.1c-22,20.5-52.3,30.9-90.2,30.9
	c-37.6,0-66.1-7.8-87-23.8c0,0-11-8.1-18.8-21.3c-0.3-0.5-0.7-0.7-1.2-0.7c-0.7,0-1.3,0.5-1.4,1.2c-0.9,9.2-4.4,17.6-10.2,24.5
	c-8,9.5-19.6,14.7-32.8,14.7h-35.3c-13.6,0-25.5-4.7-34.1-13c-0.7-0.7-1.7-1.1-2.6-1.1c-0.7,0-1.4,0.2-2,0.6
	c-0.9,0.6-1.8,1.1-2.7,1.7c-19,11.4-42.1,17.2-68.9,17.2c-46.9,0-72.4-20.7-85.5-38c-0.8-1.1-1.7-2.2-2.5-3.4
	c-0.3-0.5-0.8-0.7-1.3-0.7c-0.4,0-0.8,0.2-1.1,0.5c-28,27.6-63.2,41.6-104.8,41.6c-44.7,0-81.5-15.2-109.3-45.1
	c-1.8-1.9-3.5-3.9-5.2-5.8c-0.3-0.4-0.8-0.6-1.2-0.6c-0.8,0-1.6,0.6-1.6,1.6v0.9c0,11.3-3.9,21.5-11.1,29.7c-8,9-19,14-30.8,14
	h-29.4c-12.2,0-23.3-5.2-31.3-14.7c-6.8-8.1-10.5-18.1-10.5-28.9v-84.1c0-2.6-0.7-5.2-2-7.5L36.1,92.5c-4-6.7-6.1-14.4-6.1-22.2
	c0-9.8,3.5-19.1,10.1-26.7C47.7,34.8,58.2,30,69.8,30h34.3c16.4,0,30.3,7.5,38,20.5l0.5,0.9c0,0,0,0.1,0.1,0.1l0.5,0.9
	c0.1,0.2,0.3,0.5,0.5,0.8l0.5,0.8l58.6,107.3c0.7,1.3,2.1,2,3.4,2c1.3,0,2.7-0.7,3.4-2c3.9-7.3,8.2-15.5,12.8-24.4
	c12.5-24.2,24-49.6,34.5-75.3c3.4-8.5,7.7-15.1,13.3-20.3c5.5-5.1,15.3-11.3,30.7-11.3h33.1c13,0,24.6,5.8,31.9,15.9
	c5.4,7.5,8.3,16.3,8.3,25.5c0,7.1-1.4,14-4.3,20.4l-0.4,0.8l-7.5,14.5c-1.1,2.1,0.5,4.5,2.7,4.5c0.1,0,0.2,0,0.2,0
	c4.4-0.3,8.9-0.5,13.5-0.5c34.5,0,63.9,8,87.8,23.7c0.5,0.4,1.1,0.5,1.7,0.5c1,0,2-0.5,2.7-1.4c1-1.3,2-2.6,3.2-3.8
	c8.1-8.8,19.7-13.7,32.6-13.7h21.8c16.5,0,31,8.8,39,21.9c6,9.8,16.6,15.8,28.1,15.8c11.7,0,22.5-6.3,28.4-16.4
	c1.5-2.6,3.3-5,5.3-7.3c5.7-6.4,16.3-14,33.9-14h37.6c12.3,0,23.2,4,31.6,11.2c0.3,0.3,0.7,0.4,1.1,0.4c0.3,0,0.7-0.1,1-0.3
	c14.4-10.9,31.8-16.6,50.8-16.6c18.1,0,32.6,2.9,43.8,8.7c0.2,0.1,0.5,0.2,0.7,0.2c0.2,0,0.4,0,0.6-0.1c15.1-5.8,32-8.8,50.2-8.8
	c30,0,55.9,6.2,77.1,18.6l0.4,0.2c20.1,12.1,23.1,28.6,23.1,37.5c0,10.5-2.6,21.5-7.6,32.8c-8.6,19.2-23,27.2-33.1,29.5
	c-0.9,0.2-1.1,1.4-0.3,1.8c10.1,5.7,19,12.5,24.5,18l0.2,0.2c18.2,18.6,27.7,41.5,27.7,66.4C992.5,345.8,981.6,371.8,960.9,391.3z"
	/>
<path fill="#ffffff" d="M943.3,270.7c-6.5-6.5-19.1-13.9-37.7-22l-23-9.6c-7.1-2.8-13.2-5.7-18.3-8.5c-5.1-2.8-9.1-6-12-9.4
	c-2.9-3.4-4.4-8.3-4.4-14.7c0-6.4,3.6-11.8,10.9-16.2c3-1.8,6.3-3.2,10-4.1c3.7-0.9,8.6-1.3,14.6-1.3c6,0,12.6,1.1,19.7,3.2
	c3.3,0.9,6.4,2,9.3,3.3c2.9,1.4,6.2,3,9.8,4.8c3.6,1.8,7.7,2.8,12.2,2.8s8.4-3.7,11.7-11.2c3.3-7.5,5-14.3,5-20.6
	c0-4.4-2.8-8.3-8.5-11.7c-16.6-9.7-37.3-14.5-62.1-14.5c-19.8,0-36.9,4.2-51.3,12.4c-2.7,1.6-6.1,0.5-7.8-2
	c-0.6-0.8-1.3-1.6-2.1-2.3c-6.4-5.4-17.8-8.1-34.1-8.1c-14.6,0-27,4.8-37.1,14.3c-5,4.8-9.2,10.8-12.6,17.8c-3.4,7-5.5,13-6.2,17.8
	c-0.7,4.8-1.2,7.3-1.4,7.3s-0.3-0.1-0.3-0.4c-2.1-17.5-5.5-31.2-10.2-41.2c-3.3-6.8-8.8-10.2-16.6-10.2H663c-5.3,0-9.1,1.4-11.5,4.1
	c-2.4,2.7-3.6,6-3.6,10v127.3c0,15.9-6.7,30.1-20,42.4c-6,5.4-12.7,9.7-20.2,13c-7.5,3.3-14.7,4.9-21.8,4.9s-13.1-0.9-18.2-2.6
	c-15.8-5.3-23.7-24.9-23.7-58.9V160.4c0-7.8-6.3-14.1-14.1-14.1h-23.5c-4.6,0-8.1,1.4-10.6,4.1c-2.5,2.7-3.7,6-3.7,10v34.1
	c0,4.9-6.5,6.6-8.8,2.3c-4.2-7.9-9.3-15-15.3-21.5c-21.2-22.9-51-34.3-89.6-34.3c-29,0-53.8,8.1-74.4,24.4c-2.3,1.8-5.5-0.8-4.2-3.5
	l42.5-82.4c1.1-2.6,1.7-5.3,1.7-8.2c0-2.9-0.9-5.5-2.6-7.9s-4.3-3.5-7.7-3.5h-33.1c-4.6,0-8,1.1-10.2,3.2c-2.3,2.1-4.3,5.3-6,9.6
	c-10.8,26.7-22.7,52.7-35.6,77.8c-12.9,25.2-23.4,44.2-31.3,57c-8,12.9-12.2,19.3-12.7,19.3c-0.5,0-1-0.6-1.6-1.9L118.2,69.2
	c-0.7-1.1-1.4-2.3-1.9-3.4C114,61.9,110,60,104.1,60H69.8c-2.8,0-5.2,1.1-7,3.2c-1.8,2.1-2.8,4.5-2.8,7s0.6,4.9,1.9,7l116,199.8
	v96.2c0,3.7,1.1,6.9,3.4,9.6c2.3,2.7,5,4.1,8.3,4.1h29.4c3.3,0,6.1-1.3,8.4-3.9c2.3-2.6,3.5-5.9,3.5-9.7v-99.4
	c7.1-10.1,14.2-20.7,21.2-31.6c2.3-3.6,7.9-1.5,7.3,2.7c-0.9,6.7-1.4,13.6-1.4,20.8c0,37.4,10.9,67.7,32.8,90.9
	c22,23.7,51.2,35.6,87.4,35.6c34.4,0,62.9-11.6,85.5-34.8c9.5-9.7,17-20.4,22.6-32.4c1.9-4.1,8-3.3,8.9,1.1
	c3.2,16.2,8.7,29.6,16.6,39.9c13.2,17.4,33.8,26.1,61.6,26.1c21.3,0,39.1-4.3,53.4-12.9c12.6-7.6,22-17.6,28.1-30.1
	c0.8-1.6,3.2-1.4,3.7,0.4c2.9,11.3,5.6,20.3,8.2,27.1c2.7,6.8,8.3,10.2,16.8,10.2h35.3c4.3,0,7.5-1.3,9.8-4.1c2.3-2.7,3.4-6,3.4-10
	V259.6c0-15.8,4.2-30.6,12.6-44.6c4.1-6.7,9-12.3,14.7-16.7c1.6-1.3,3.2-2.4,4.8-3.3c4.7-2.7,10.3-3.6,15.7-2.7l10.8,1.8
	c3.2,0.5,5.3,3.4,4.9,6.6c-0.3,2.6-0.5,5.2-0.5,7.9c0,17.5,4.7,31.9,14.1,43.3c4.5,5.4,9.9,10.2,16.1,14.4
	c6.2,4.2,12.8,8.1,19.9,11.6c7.1,3.6,14.5,6.6,22.3,9.2c7.7,2.6,14.9,5.3,21.4,8.3c15.5,7,23.2,15.5,23.2,25.6
	c0,18.3-13.6,27.5-40.9,27.5c-9,0-17.8-1.6-26.7-4.8c-8.8-3.2-15.7-6.8-20.8-10.9c-5-4.1-9.8-6.1-14.3-6.1s-8,2.5-10.7,7.4
	c-2.6,4.9-4.8,9.2-6.4,12.8c-1.6,3.6-2.5,7.7-2.5,12.3c0,4.6,3.8,9.7,11.3,15.4c15.4,11.8,38.3,17.7,68.9,17.7
	c30.1,0,53.4-7.6,69.7-22.8c14.8-13.9,22.2-31.7,22.2-53.3C962.5,298.9,956.1,283.8,943.3,270.7z M430,324.2
	c-11.5,15.9-28.4,23.9-50.8,23.9c-21.9,0-39-8.1-51.2-24.3c-5.5-7.4-9.7-15.8-12.5-25.3c-2.8-9.5-4.2-19.3-4.2-29.6
	c0-10.3,1.2-20.5,3.6-30.5c2.4-10,6.3-19,11.6-26.9c5.3-7.9,12.2-14.2,20.7-19c8.5-4.8,18.8-7.1,31.1-7.1c12.3,0,22.8,2.5,31.5,7.5
	c23.6,13.6,35.4,38.5,35.4,74.4C445.4,291.3,440.3,310.3,430,324.2z"/>
</svg>
